<svg width="957" height="575" viewBox="0 0 957 575" fill="none" xmlns="http://www.w3.org/2000/svg">
<path d="M265.147 258.316C249.588 258.316 246.362 264.699 246.078 274.123H239.248V283.244H246.078V315.923H259.359V283.25H279.471V274.129H259.359C259.454 269.645 260.213 267.822 265.525 267.822H279.471V258.322L265.147 258.316ZM685.573 262.723V315.923H698.854V262.721L685.573 262.723ZM704.471 262.723V315.923H717.752V262.721L704.471 262.723ZM348.736 273.363C330.427 273.363 321.415 280.887 321.415 295.023C321.415 308.551 329.763 316.683 348.736 316.683C358.033 316.683 363.44 314.706 366.571 310.982V315.922H379.852V274.115H366.571V278.98C363.535 275.332 358.128 273.356 348.736 273.356V273.363ZM414.355 273.363C406.481 273.363 401.832 274.882 399.08 277.77V274.122H385.799V315.922H399.08V293.116C399.08 286.96 403.064 283.616 411.507 283.616C420.235 283.616 423.936 287.265 423.936 293.116V315.915H437.217V293.117C437.217 286.961 441.201 283.617 449.644 283.617C458.372 283.617 462.073 287.265 462.073 293.117V315.916H475.354V293.118C475.354 280.806 466.912 273.357 452.492 273.357C442.246 273.357 436.363 275.941 433.233 280.805C429.439 276.017 422.988 273.357 414.356 273.357L414.355 273.363ZM509.139 273.363C490.83 273.363 479.919 280.887 479.919 295.023C479.919 308.551 490.165 316.683 509.139 316.683C524.602 316.683 534.848 311.211 537.695 300.951H523.37C520.998 304.599 516.064 306.423 509.139 306.423C499.557 306.423 494.054 302.774 493.295 296.618H538.357V295.023C538.357 281.494 528.113 273.363 509.139 273.363ZM652.166 273.363C633.856 273.363 622.945 280.887 622.945 295.023C622.945 308.551 633.192 316.683 652.166 316.683C667.629 316.683 677.875 311.211 680.721 300.951H666.396C664.025 304.599 659.091 306.423 652.166 306.423C642.583 306.423 637.083 302.774 636.324 296.618H681.386V295.023C681.386 281.494 671.139 273.363 652.166 273.363ZM282.973 274.122V315.922H296.254V296.009C296.254 289.473 303.56 283.242 315.798 283.242H321.679V274.123H315.798C306.691 274.123 300.144 276.175 296.254 281.343V274.123L282.973 274.122ZM535.316 274.122L548.312 315.922H562.068L549.068 274.122H535.316ZM562.068 315.922H575.824L585.026 274.122H571.27L562.068 315.922ZM611.589 274.122L598.593 315.922H612.349L625.345 274.122H611.589ZM598.593 315.922L594.134 295.63H580.378L584.835 315.922H598.593ZM350.633 283.622C360.974 283.622 366.57 287.878 366.57 295.022C366.57 302.47 360.689 306.423 350.633 306.423C340.292 306.423 334.694 302.167 334.694 295.022C334.694 287.575 340.577 283.622 350.633 283.622ZM509.136 283.622C516.061 283.622 520.805 285.522 523.272 288.866H495.001C497.467 285.446 502.4 283.622 509.136 283.622ZM652.163 283.622C659.088 283.622 663.832 285.522 666.298 288.866H638.027C640.494 285.446 645.427 283.622 652.163 283.622Z" fill="white"/>
</svg>
