<?xml version="1.0" encoding="UTF-8" standalone="no"?>
<svg
   xmlns:dc="http://purl.org/dc/elements/1.1/"
   xmlns:cc="http://creativecommons.org/ns#"
   xmlns:rdf="http://www.w3.org/1999/02/22-rdf-syntax-ns#"
   xmlns:svg="http://www.w3.org/2000/svg"
   xmlns="http://www.w3.org/2000/svg"
   id="svg16"
   xml:space="preserve"
   viewBox="0 0 1024 768"
   y="0px"
   x="0px"
   version="1.1"><metadata
     id="metadata22"><rdf:RDF><cc:Work
         rdf:about=""><dc:format>image/svg+xml</dc:format><dc:type
           rdf:resource="http://purl.org/dc/dcmitype/StillImage" /></cc:Work></rdf:RDF></metadata><defs
     id="defs20" /><rect
     id="rect2"
     height="768"
     width="1024"
     fill="#ffffff" /><g
     style="fill:#4d4d4d;stroke-width:0;stroke-miterlimit:2"
     transform="matrix(1.2816,0,0,1.2816,-144.17,-108.13)"
     stroke-miterlimit="2"
     id="logo-group"><path
       class="c1"
       d="m 345.83,363.49 h -11.643 c -4.4356,0 -5.0692,1.901 -5.1483,6.5742 h 16.792 v 9.5048 h -16.792 v 34.059 h -11.089 v -34.059 h -5.7029 v -9.5048 h 5.7029 c 0.23753,-9.8216 2.9306,-16.475 15.921,-16.475 h 11.96 z"
       style="font-variant-ligatures:normal"
       id="path12" /><path
       class="c1"
       d="m 348.75,370.06 h 11.089 v 7.5246 c 3.2476,-5.3861 8.713,-7.5246 16.317,-7.5246 h 4.9108 v 9.5048 h -4.9108 c -10.218,0 -16.317,6.495 -16.317,13.307 v 20.752 H 348.75 Z"
       style="font-variant-ligatures:normal"
       id="path15" /><path
       class="c1"
       d="m 380.85,391.84 c 0,-14.732 7.5246,-22.574 22.812,-22.574 7.8415,0 12.356,2.0594 14.891,5.8613 v -5.0692 h 11.089 v 43.564 h -11.089 v -5.1484 c -2.6138,3.8811 -7.1286,5.9405 -14.891,5.9405 -15.841,1e-5 -22.812,-8.4751 -22.812,-22.574 z m 24.396,11.881 c 8.3959,0 13.307,-4.1188 13.307,-11.881 0,-7.4454 -4.6732,-11.881 -13.307,-11.881 -8.3959,0 -13.307,4.1188 -13.307,11.881 0,7.4455 4.6732,11.881 13.307,11.881 z"
       style="font-variant-ligatures:normal"
       id="path18" /><path
       class="c1"
       d="m 456.07,379.96 c -7.0496,0 -10.376,3.4851 -10.376,9.9009 v 23.762 h -11.09 v -43.56 h 11.089 v 3.8019 c 2.2969,-3.0098 6.1781,-4.594 12.752,-4.594 7.2077,0 12.594,2.7723 15.762,7.7623 2.6138,-5.0692 7.5246,-7.7623 16.079,-7.7623 12.04,0 19.089,7.7623 19.089,20.594 v 23.762 h -11.089 v -23.762 c 0,-6.0989 -3.0889,-9.9009 -10.376,-9.9009 -7.0493,0 -10.376,3.4851 -10.376,9.9009 v 23.762 h -11.089 v -23.762 c 0,-6.099 -3.0889,-9.9009 -10.376,-9.9009 z"
       style="font-variant-ligatures:normal"
       id="path21" /><path
       class="c1"
       d="m 513.18,391.84 c 0,-14.732 9.1088,-22.574 24.396,-22.574 15.841,0 24.396,8.4752 24.396,22.574 v 1.6634 h -37.623 c 0.63366,6.4158 5.2277,10.218 13.228,10.218 5.782,0 9.9008,-1.901 11.881,-5.7029 h 11.96 c -2.3762,10.693 -10.931,16.396 -23.841,16.396 -15.842,0 -24.396,-8.4751 -24.396,-22.574 z m 36.198,-6.4157 c -2.0594,-3.4852 -6.0198,-5.4653 -11.802,-5.4653 -5.6238,0 -9.7425,1.901 -11.802,5.4653 z"
       style="font-variant-ligatures:normal"
       id="path24" /><path
       class="c1"
       d="m 608.54,392.48 h -11.485 l 3.7227,21.148 h 11.485 z m -49.108,-22.416 10.851,43.564 h 11.485 l -10.84,-43.56 z"
       style="font-variant-ligatures:normal"
       id="path27" /><path
       id="polygon29"
       d="m 134.17,82.716 h -10.44 l -9.87,39.604 h 10.44 z"
       style="font-variant-ligatures:normal"
       transform="matrix(1.1,0,0,1.1,487.02,279.07)" /><path
       id="polygon31"
       d="M 93.123,82.716 86.139,122.32 H 96.58 l 6.98,-39.604 z"
       style="font-variant-ligatures:normal"
       transform="matrix(1.1,0,0,1.1,487.02,279.07)" /><path
       class="c1"
       d="m 632.6,391.84 c 0,-14.732 9.1088,-22.574 24.396,-22.574 15.841,0 24.396,8.4752 24.396,22.574 v 1.6634 h -37.623 c 0.63366,6.4158 5.2277,10.218 13.228,10.218 5.782,0 9.9008,-1.901 11.881,-5.7029 h 11.96 c -2.3762,10.693 -10.931,16.396 -23.841,16.396 -15.842,0 -24.396,-8.4751 -24.396,-22.574 z m 36.198,-6.4157 c -2.0594,-3.4852 -6.0198,-5.4653 -11.802,-5.4653 -5.6238,0 -9.7425,1.901 -11.802,5.4653 z"
       style="font-variant-ligatures:normal"
       id="path34" /><path
       class="c1"
       d="m 695.98,358.18 v 55.445 h -11.09 v -55.44 z"
       style="font-variant-ligatures:normal"
       id="path37" /><path
       class="c1"
       d="m 711.76,358.18 v 55.445 h -11.09 v -55.44 z"
       style="font-variant-ligatures:normal"
       id="path40" /></g></svg>