<?xml version="1.0" encoding="UTF-8" standalone="no"?>
<svg
   xmlns:dc="http://purl.org/dc/elements/1.1/"
   xmlns:cc="http://creativecommons.org/ns#"
   xmlns:rdf="http://www.w3.org/1999/02/22-rdf-syntax-ns#"
   xmlns:svg="http://www.w3.org/2000/svg"
   xmlns="http://www.w3.org/2000/svg"
   id="svg4"
   xml:space="preserve"
   viewBox="0 0 1024 768"
   y="0px"
   x="0px"
   version="1.1"><metadata
     id="metadata10"><rdf:RDF><cc:Work
         rdf:about=""><dc:format>image/svg+xml</dc:format><dc:type
           rdf:resource="http://purl.org/dc/dcmitype/StillImage" /></cc:Work></rdf:RDF></metadata><defs
     id="defs8" /><path
     id="path2"
     d="m283.71 345.02c-16.648 0-20.1 8.5262-20.404 21.113h-7.3086v12.182h7.3086v43.648h14.211v-43.64h21.52v-12.182h-21.52c0.10137-5.989 0.91314-8.4238 6.5976-8.4238h14.922v-12.689zm449.86 5.8867v71.057h14.211v-71.06zm20.221 0v71.057h14.211v-71.06zm-380.64 14.211c-19.591 0-29.234 10.049-29.234 28.93 0 18.069 8.9326 28.93 29.234 28.93 9.9479 0 15.734-2.6394 19.084-7.6133v6.5977h14.211v-55.84h-14.211v6.498c-3.2483-4.8724-9.0346-7.5117-19.084-7.5117zm70.213 0c-8.4253 0-13.4 2.0294-16.344 5.8867v-4.873h-14.211v55.83h14.211v-30.46c0-8.2222 4.2624-12.689 13.297-12.689 9.3388 0 13.299 4.8732 13.299 12.689v30.451h14.211v-30.45c0-8.2222 4.2627-12.689 13.297-12.689 9.3391 0 13.299 4.8732 13.299 12.689v30.451h14.211v-30.45c0-16.444-9.0333-26.393-24.463-26.393-10.963 0-17.258 3.4507-20.607 9.9473-4.0602-6.3951-10.962-9.9473-20.199-9.9473zm101.42 0c-19.591 0-31.266 10.049-31.266 28.93 0 18.069 10.964 28.93 31.266 28.93 16.546 0 27.509-7.308 30.555-21.012h-15.328c-2.5376 4.8724-7.8166 7.3086-15.227 7.3086-10.253 0-16.141-4.8734-16.953-13.096h48.217v-2.1308c0-18.069-10.962-28.93-31.264-28.93zm153.04 0c-19.591 0-31.266 10.049-31.266 28.93 0 18.069 10.964 28.93 31.266 28.93 16.546 0 27.509-7.308 30.555-21.012h-15.328c-2.5376 4.8724-7.8166 7.3086-15.227 7.3086-10.253 0-16.139-4.8734-16.951-13.096h48.217v-2.1308c0-18.069-10.964-28.93-31.266-28.93zm-395.04 1.0137v55.83h14.211v-26.596c0-8.7297 7.8174-17.053 20.912-17.053h6.293v-12.18h-6.293c-9.7449 0-16.75 2.7419-20.912 9.6445v-9.6445zm270.01 0 13.906 55.83h14.719l-13.91-55.83zm28.625 55.83h14.719l9.8457-55.83h-14.719zm52.988-55.83-13.906 55.83h14.719l13.906-55.83zm-13.906 55.83-4.7715-27.102h-14.719l4.7695 27.102zm-265.32-43.141c11.065 0 17.053 5.6848 17.053 15.227 0 9.9479-6.2928 15.227-17.053 15.227-11.065 0-17.055-5.6847-17.055-15.227 0-9.9478 6.2947-15.227 17.055-15.227zm169.6 0c7.41 0 12.486 2.5374 15.125 7.0039h-30.25c2.6393-4.5679 7.9177-7.0039 15.125-7.0039zm153.04 0c7.41 0 12.486 2.5374 15.125 7.0039h-30.25c2.6393-4.5679 7.9177-7.0039 15.125-7.0039z"
     fill="#ffffff" /></svg>